{
	"asset":{
		"generator":"Khronos glTF Blender I/O v3.6.27",
		"version":"2.0"
	},
	"scene":0,
	"scenes":[
		{
			"name":"Scene",
			"nodes":[
				0,
				1,
				2,
				3,
				4
			]
		}
	],
	"nodes":[
		{
			"mesh":0,
			"name":"Cube.001",
			"rotation":[
				-0.10485270619392395,
				0.00019660047837533057,
				-2.072835741273593e-05,
				0.9944877624511719
			],
			"scale":[
				3.1297006607055664,
				0.8547081351280212,
				0.8547080755233765
			],
			"translation":[
				-0.17651888728141785,
				-0.00360392639413476,
				0.43758559226989746
			]
		},
		{
			"mesh":1,
			"name":"Cube",
			"rotation":[
				-0.10485272854566574,
				0,
				0,
				0.9944877624511719
			],
			"scale":[
				2.432737350463867,
				0.6346243023872375,
				0.4508284628391266
			],
			"translation":[
				-0.07087927311658859,
				0.0585789829492569,
				-0.07215750217437744
			]
		},
		{
			"mesh":2,
			"name":"Cube.003",
			"rotation":[
				-0.10485270619392395,
				0.00019660047837533057,
				-2.072835741273593e-05,
				0.9944877624511719
			],
			"scale":[
				3.1297006607055664,
				0.8547081351280212,
				0.8547080755233765
			],
			"translation":[
				-0.17651888728141785,
				-0.8047966361045837,
				0.6084305644035339
			]
		},
		{
			"mesh":3,
			"name":"Cube.002",
			"rotation":[
				-0.10485272854566574,
				0,
				0,
				0.9944877624511719
			],
			"scale":[
				2.432737350463867,
				0.6346243023872375,
				0.4508284628391266
			],
			"translation":[
				-0.07087927311658859,
				0.8461370468139648,
				0.23958426713943481
			]
		},
		{
			"mesh":4,
			"name":"Cube.004",
			"rotation":[
				-0.10485272854566574,
				0,
				0,
				0.9944877624511719
			],
			"scale":[
				2.432737350463867,
				0.6346243023872375,
				0.4508284628391266
			],
			"translation":[
				-0.07087927311658859,
				0.8461370468139648,
				0.23958426713943481
			]
		}
	],
	"materials":[
		{
			"doubleSided":true,
			"name":"White",
			"pbrMetallicRoughness":{
				"metallicFactor":0
			}
		},
		{
			"doubleSided":true,
			"name":"Plastic",
			"pbrMetallicRoughness":{
				"baseColorFactor":[
					1,
					0.5386396050453186,
					0,
					1
				],
				"metallicFactor":0
			}
		},
		{
			"alphaMode":"BLEND",
			"doubleSided":true,
			"name":"Transparent Glass",
			"pbrMetallicRoughness":{}
		}
	],
	"meshes":[
		{
			"name":"Cube.001",
			"primitives":[
				{
					"attributes":{
						"POSITION":0,
						"NORMAL":1,
						"TEXCOORD_0":2,
						"TEXCOORD_1":3
					},
					"indices":4,
					"material":0
				}
			]
		},
		{
			"name":"Cube.002",
			"primitives":[
				{
					"attributes":{
						"POSITION":5,
						"NORMAL":6,
						"TEXCOORD_0":7,
						"TEXCOORD_1":8
					},
					"indices":9,
					"material":1
				}
			]
		},
		{
			"name":"Cube.005",
			"primitives":[
				{
					"attributes":{
						"POSITION":10,
						"NORMAL":11,
						"TEXCOORD_0":12,
						"TEXCOORD_1":13
					},
					"indices":14,
					"material":0
				}
			]
		},
		{
			"name":"Cube.006",
			"primitives":[
				{
					"attributes":{
						"POSITION":15,
						"NORMAL":16,
						"TEXCOORD_0":17,
						"TEXCOORD_1":18
					},
					"indices":19,
					"material":1
				}
			]
		},
		{
			"name":"Cube.004",
			"primitives":[
				{
					"attributes":{
						"POSITION":20,
						"NORMAL":21,
						"TEXCOORD_0":22,
						"TEXCOORD_1":23
					},
					"indices":24,
					"material":2
				}
			]
		}
	],
	"accessors":[
		{
			"bufferView":0,
			"componentType":5126,
			"count":704,
			"max":[
				0.6585724353790283,
				0.5863330960273743,
				-0.0516243577003479
			],
			"min":[
				-0.5914404988288879,
				-0.43118876218795776,
				-1.0567469596862793
			],
			"type":"VEC3"
		},
		{
			"bufferView":1,
			"componentType":5126,
			"count":704,
			"type":"VEC3"
		},
		{
			"bufferView":2,
			"componentType":5126,
			"count":704,
			"type":"VEC2"
		},
		{
			"bufferView":3,
			"componentType":5126,
			"count":704,
			"type":"VEC2"
		},
		{
			"bufferView":4,
			"componentType":5123,
			"count":1200,
			"type":"SCALAR"
		},
		{
			"bufferView":5,
			"componentType":5126,
			"count":50,
			"max":[
				1,
				1.1518069505691528,
				0.9999999403953552
			],
			"min":[
				-1,
				-2.807643175125122,
				-1
			],
			"type":"VEC3"
		},
		{
			"bufferView":6,
			"componentType":5126,
			"count":50,
			"type":"VEC3"
		},
		{
			"bufferView":7,
			"componentType":5126,
			"count":50,
			"type":"VEC2"
		},
		{
			"bufferView":8,
			"componentType":5126,
			"count":50,
			"type":"VEC2"
		},
		{
			"bufferView":9,
			"componentType":5123,
			"count":120,
			"type":"SCALAR"
		},
		{
			"bufferView":10,
			"componentType":5126,
			"count":504,
			"max":[
				0.6585724353790283,
				0.5863330960273743,
				-0.0516243577003479
			],
			"min":[
				-0.5914404988288879,
				-0.43118876218795776,
				-1.0567469596862793
			],
			"type":"VEC3"
		},
		{
			"bufferView":11,
			"componentType":5126,
			"count":504,
			"type":"VEC3"
		},
		{
			"bufferView":12,
			"componentType":5126,
			"count":504,
			"type":"VEC2"
		},
		{
			"bufferView":13,
			"componentType":5126,
			"count":504,
			"type":"VEC2"
		},
		{
			"bufferView":14,
			"componentType":5123,
			"count":900,
			"type":"SCALAR"
		},
		{
			"bufferView":15,
			"componentType":5126,
			"count":70,
			"max":[
				1,
				0.029888814315199852,
				0.008636893704533577
			],
			"min":[
				-1,
				-3.9295613765716553,
				-1.997658610343933
			],
			"type":"VEC3"
		},
		{
			"bufferView":16,
			"componentType":5126,
			"count":70,
			"type":"VEC3"
		},
		{
			"bufferView":17,
			"componentType":5126,
			"count":70,
			"type":"VEC2"
		},
		{
			"bufferView":18,
			"componentType":5126,
			"count":70,
			"type":"VEC2"
		},
		{
			"bufferView":19,
			"componentType":5123,
			"count":120,
			"type":"SCALAR"
		},
		{
			"bufferView":20,
			"componentType":5126,
			"count":22,
			"max":[
				0.7926469445228577,
				-0.6245807409286499,
				0.008636893704533577
			],
			"min":[
				-0.7926469445228577,
				-3.2627999782562256,
				-0.003953633829951286
			],
			"type":"VEC3"
		},
		{
			"bufferView":21,
			"componentType":5126,
			"count":22,
			"type":"VEC3"
		},
		{
			"bufferView":22,
			"componentType":5126,
			"count":22,
			"type":"VEC2"
		},
		{
			"bufferView":23,
			"componentType":5126,
			"count":22,
			"type":"VEC2"
		},
		{
			"bufferView":24,
			"componentType":5123,
			"count":36,
			"type":"SCALAR"
		}
	],
	"bufferViews":[
		{
			"buffer":0,
			"byteLength":8448,
			"byteOffset":0,
			"target":34962
		},
		{
			"buffer":0,
			"byteLength":8448,
			"byteOffset":8448,
			"target":34962
		},
		{
			"buffer":0,
			"byteLength":5632,
			"byteOffset":16896,
			"target":34962
		},
		{
			"buffer":0,
			"byteLength":5632,
			"byteOffset":22528,
			"target":34962
		},
		{
			"buffer":0,
			"byteLength":2400,
			"byteOffset":28160,
			"target":34963
		},
		{
			"buffer":0,
			"byteLength":600,
			"byteOffset":30560,
			"target":34962
		},
		{
			"buffer":0,
			"byteLength":600,
			"byteOffset":31160,
			"target":34962
		},
		{
			"buffer":0,
			"byteLength":400,
			"byteOffset":31760,
			"target":34962
		},
		{
			"buffer":0,
			"byteLength":400,
			"byteOffset":32160,
			"target":34962
		},
		{
			"buffer":0,
			"byteLength":240,
			"byteOffset":32560,
			"target":34963
		},
		{
			"buffer":0,
			"byteLength":6048,
			"byteOffset":32800,
			"target":34962
		},
		{
			"buffer":0,
			"byteLength":6048,
			"byteOffset":38848,
			"target":34962
		},
		{
			"buffer":0,
			"byteLength":4032,
			"byteOffset":44896,
			"target":34962
		},
		{
			"buffer":0,
			"byteLength":4032,
			"byteOffset":48928,
			"target":34962
		},
		{
			"buffer":0,
			"byteLength":1800,
			"byteOffset":52960,
			"target":34963
		},
		{
			"buffer":0,
			"byteLength":840,
			"byteOffset":54760,
			"target":34962
		},
		{
			"buffer":0,
			"byteLength":840,
			"byteOffset":55600,
			"target":34962
		},
		{
			"buffer":0,
			"byteLength":560,
			"byteOffset":56440,
			"target":34962
		},
		{
			"buffer":0,
			"byteLength":560,
			"byteOffset":57000,
			"target":34962
		},
		{
			"buffer":0,
			"byteLength":240,
			"byteOffset":57560,
			"target":34963
		},
		{
			"buffer":0,
			"byteLength":264,
			"byteOffset":57800,
			"target":34962
		},
		{
			"buffer":0,
			"byteLength":264,
			"byteOffset":58064,
			"target":34962
		},
		{
			"buffer":0,
			"byteLength":176,
			"byteOffset":58328,
			"target":34962
		},
		{
			"buffer":0,
			"byteLength":176,
			"byteOffset":58504,
			"target":34962
		},
		{
			"buffer":0,
			"byteLength":72,
			"byteOffset":58680,
			"target":34963
		}
	],
	"buffers":[
		{
			"byteLength":58752,
			"uri":"caja2.bin"
		}
	]
}
