{
	"asset":{
		"generator":"Khronos glTF Blender I/O v3.6.27",
		"version":"2.0"
	},
	"scene":0,
	"scenes":[
		{
			"name":"Scene",
			"nodes":[
				0,
				1,
				2,
				3
			]
		}
	],
	"nodes":[
		{
			"mesh":0,
			"name":"Cube",
			"rotation":[
				-0.06499392539262772,
				0,
				0,
				0.9978857636451721
			],
			"scale":[
				2.432737350463867,
				0.6397601366043091,
				0.5495045185089111
			],
			"translation":[
				-0.07087927311658859,
				0.14963920414447784,
				0
			]
		},
		{
			"mesh":1,
			"name":"Plane",
			"rotation":[
				0.6567644476890564,
				0,
				0,
				0.7540957927703857
			],
			"scale":[
				3.335299015045166,
				2.9555301666259766,
				3.3669164180755615
			],
			"translation":[
				-0.09216184169054031,
				0.18284602463245392,
				0.3711371123790741
			]
		},
		{
			"mesh":2,
			"name":"Cube.003",
			"rotation":[
				-0.06499392539262772,
				0,
				0,
				0.9978857636451721
			],
			"scale":[
				2.432737350463867,
				0.6397601366043091,
				0.5495045185089111
			],
			"translation":[
				-0.07087927311658859,
				0.8387541770935059,
				0.4725360870361328
			]
		},
		{
			"mesh":3,
			"name":"Cube.001",
			"rotation":[
				-0.06499392539262772,
				0,
				0,
				0.9978857636451721
			],
			"scale":[
				2.415273904800415,
				0.6193016171455383,
				0.5492085218429565
			],
			"translation":[
				-0.07087927311658859,
				0.14963920414447784,
				0.024177301675081253
			]
		}
	],
	"materials":[
		{
			"doubleSided":true,
			"name":"Plastic",
			"pbrMetallicRoughness":{
				"baseColorFactor":[
					1,
					0.5386396050453186,
					0,
					1
				],
				"metallicFactor":0
			}
		},
		{
			"alphaMode":"BLEND",
			"doubleSided":true,
			"name":"Transparent plastic",
			"pbrMetallicRoughness":{}
		},
		{
			"alphaMode":"BLEND",
			"doubleSided":true,
			"name":"Transparent Glass",
			"pbrMetallicRoughness":{}
		},
		{
			"doubleSided":true,
			"name":"Black",
			"pbrMetallicRoughness":{
				"metallicFactor":0
			}
		}
	],
	"meshes":[
		{
			"name":"Cube",
			"primitives":[
				{
					"attributes":{
						"POSITION":0,
						"NORMAL":1,
						"TEXCOORD_0":2,
						"TEXCOORD_1":3
					},
					"indices":4,
					"material":0
				}
			]
		},
		{
			"name":"Plane",
			"primitives":[
				{
					"attributes":{
						"POSITION":5,
						"NORMAL":6,
						"TEXCOORD_0":7
					},
					"indices":8,
					"material":1
				}
			]
		},
		{
			"name":"Cube.003",
			"primitives":[
				{
					"attributes":{
						"POSITION":9,
						"NORMAL":10,
						"TEXCOORD_0":11,
						"TEXCOORD_1":12
					},
					"indices":13,
					"material":2
				},
				{
					"attributes":{
						"POSITION":14,
						"NORMAL":15,
						"TEXCOORD_0":16,
						"TEXCOORD_1":17
					},
					"indices":18,
					"material":0
				}
			]
		},
		{
			"name":"Cube.004",
			"primitives":[
				{
					"attributes":{
						"POSITION":19,
						"NORMAL":20,
						"TEXCOORD_0":21,
						"TEXCOORD_1":22
					},
					"indices":23,
					"material":3
				}
			]
		}
	],
	"accessors":[
		{
			"bufferView":0,
			"componentType":5126,
			"count":50,
			"max":[
				1,
				1,
				1
			],
			"min":[
				-1,
				-1,
				-1
			],
			"type":"VEC3"
		},
		{
			"bufferView":1,
			"componentType":5126,
			"count":50,
			"type":"VEC3"
		},
		{
			"bufferView":2,
			"componentType":5126,
			"count":50,
			"type":"VEC2"
		},
		{
			"bufferView":3,
			"componentType":5126,
			"count":50,
			"type":"VEC2"
		},
		{
			"bufferView":4,
			"componentType":5123,
			"count":120,
			"type":"SCALAR"
		},
		{
			"bufferView":5,
			"componentType":5126,
			"count":937,
			"max":[
				0.6499441266059875,
				-1.0081266488271012e-08,
				0.1398826390504837
			],
			"min":[
				-0.6530988812446594,
				-0.2629817724227905,
				-0.15418842434883118
			],
			"type":"VEC3"
		},
		{
			"bufferView":6,
			"componentType":5126,
			"count":937,
			"type":"VEC3"
		},
		{
			"bufferView":7,
			"componentType":5126,
			"count":937,
			"type":"VEC2"
		},
		{
			"bufferView":8,
			"componentType":5123,
			"count":5472,
			"type":"SCALAR"
		},
		{
			"bufferView":9,
			"componentType":5126,
			"count":22,
			"max":[
				0.7926469445228577,
				-0.4827541708946228,
				0.001253962516784668
			],
			"min":[
				-0.7926469445228577,
				-1.4847264289855957,
				-0.011336565017700195
			],
			"type":"VEC3"
		},
		{
			"bufferView":10,
			"componentType":5126,
			"count":22,
			"type":"VEC3"
		},
		{
			"bufferView":11,
			"componentType":5126,
			"count":22,
			"type":"VEC2"
		},
		{
			"bufferView":12,
			"componentType":5126,
			"count":22,
			"type":"VEC2"
		},
		{
			"bufferView":13,
			"componentType":5123,
			"count":36,
			"type":"SCALAR"
		},
		{
			"bufferView":14,
			"componentType":5126,
			"count":70,
			"max":[
				0.9999999403953552,
				0.016259750351309776,
				0.0012539624003693461
			],
			"min":[
				-0.9999999403953552,
				-1.9837400913238525,
				-2.0050411224365234
			],
			"type":"VEC3"
		},
		{
			"bufferView":15,
			"componentType":5126,
			"count":70,
			"type":"VEC3"
		},
		{
			"bufferView":16,
			"componentType":5126,
			"count":70,
			"type":"VEC2"
		},
		{
			"bufferView":17,
			"componentType":5126,
			"count":70,
			"type":"VEC2"
		},
		{
			"bufferView":18,
			"componentType":5123,
			"count":120,
			"type":"SCALAR"
		},
		{
			"bufferView":19,
			"componentType":5126,
			"count":14,
			"max":[
				1,
				1,
				-1
			],
			"min":[
				-1,
				-1,
				-1
			],
			"type":"VEC3"
		},
		{
			"bufferView":20,
			"componentType":5126,
			"count":14,
			"type":"VEC3"
		},
		{
			"bufferView":21,
			"componentType":5126,
			"count":14,
			"type":"VEC2"
		},
		{
			"bufferView":22,
			"componentType":5126,
			"count":14,
			"type":"VEC2"
		},
		{
			"bufferView":23,
			"componentType":5123,
			"count":36,
			"type":"SCALAR"
		}
	],
	"bufferViews":[
		{
			"buffer":0,
			"byteLength":600,
			"byteOffset":0,
			"target":34962
		},
		{
			"buffer":0,
			"byteLength":600,
			"byteOffset":600,
			"target":34962
		},
		{
			"buffer":0,
			"byteLength":400,
			"byteOffset":1200,
			"target":34962
		},
		{
			"buffer":0,
			"byteLength":400,
			"byteOffset":1600,
			"target":34962
		},
		{
			"buffer":0,
			"byteLength":240,
			"byteOffset":2000,
			"target":34963
		},
		{
			"buffer":0,
			"byteLength":11244,
			"byteOffset":2240,
			"target":34962
		},
		{
			"buffer":0,
			"byteLength":11244,
			"byteOffset":13484,
			"target":34962
		},
		{
			"buffer":0,
			"byteLength":7496,
			"byteOffset":24728,
			"target":34962
		},
		{
			"buffer":0,
			"byteLength":10944,
			"byteOffset":32224,
			"target":34963
		},
		{
			"buffer":0,
			"byteLength":264,
			"byteOffset":43168,
			"target":34962
		},
		{
			"buffer":0,
			"byteLength":264,
			"byteOffset":43432,
			"target":34962
		},
		{
			"buffer":0,
			"byteLength":176,
			"byteOffset":43696,
			"target":34962
		},
		{
			"buffer":0,
			"byteLength":176,
			"byteOffset":43872,
			"target":34962
		},
		{
			"buffer":0,
			"byteLength":72,
			"byteOffset":44048,
			"target":34963
		},
		{
			"buffer":0,
			"byteLength":840,
			"byteOffset":44120,
			"target":34962
		},
		{
			"buffer":0,
			"byteLength":840,
			"byteOffset":44960,
			"target":34962
		},
		{
			"buffer":0,
			"byteLength":560,
			"byteOffset":45800,
			"target":34962
		},
		{
			"buffer":0,
			"byteLength":560,
			"byteOffset":46360,
			"target":34962
		},
		{
			"buffer":0,
			"byteLength":240,
			"byteOffset":46920,
			"target":34963
		},
		{
			"buffer":0,
			"byteLength":168,
			"byteOffset":47160,
			"target":34962
		},
		{
			"buffer":0,
			"byteLength":168,
			"byteOffset":47328,
			"target":34962
		},
		{
			"buffer":0,
			"byteLength":112,
			"byteOffset":47496,
			"target":34962
		},
		{
			"buffer":0,
			"byteLength":112,
			"byteOffset":47608,
			"target":34962
		},
		{
			"buffer":0,
			"byteLength":72,
			"byteOffset":47720,
			"target":34963
		}
	],
	"buffers":[
		{
			"byteLength":47792,
			"uri":"data:application/octet-stream;base64,"
		}
	]
}
