{
	"asset":{
		"generator":"Khronos glTF Blender I/O v3.6.27",
		"version":"2.0"
	},
	"scene":0,
	"scenes":[
		{
			"name":"Scene",
			"nodes":[
				0,
				1,
				2,
				3,
				4
			]
		}
	],
	"nodes":[
		{
			"mesh":0,
			"name":"Cube.002",
			"rotation":[
				-0.0820278525352478,
				0,
				0,
				0.996630072593689
			],
			"scale":[
				2.617002487182617,
				0.6346243619918823,
				0.4508284032344818
			],
			"translation":[
				-0.07087927311658859,
				0.8722689151763916,
				0.2720324993133545
			]
		},
		{
			"mesh":1,
			"name":"Cube",
			"rotation":[
				-0.0820278525352478,
				0,
				0,
				0.996630072593689
			],
			"scale":[
				2.617002487182617,
				0.6346243619918823,
				0.4508284032344818
			],
			"translation":[
				-0.07087927311658859,
				0.09982728958129883,
				-0.07547950744628906
			]
		},
		{
			"mesh":2,
			"name":"Plane",
			"rotation":[
				0.6492907404899597,
				0,
				0,
				0.7605403065681458
			],
			"scale":[
				2.6175425052642822,
				2.7266924381256104,
				2.6734914779663086
			],
			"translation":[
				0.24281714856624603,
				-0.6989102363586426,
				0.4263803958892822
			]
		},
		{
			"mesh":3,
			"name":"Cube.001",
			"rotation":[
				-0.0820278525352478,
				0,
				0,
				0.996630072593689
			],
			"scale":[
				2.617002487182617,
				0.6346243619918823,
				0.4508284032344818
			],
			"translation":[
				-0.07087927311658859,
				0.8722689151763916,
				0.2720324993133545
			]
		},
		{
			"mesh":4,
			"name":"Cube.003",
			"rotation":[
				-0.0820278450846672,
				0,
				0,
				0.996630072593689
			],
			"scale":[
				2.587385654449463,
				0.6208710074424744,
				0.45056289434432983
			],
			"translation":[
				-0.07087927311658859,
				0.09982728958129883,
				-0.04357612505555153
			]
		}
	],
	"materials":[
		{
			"doubleSided":true,
			"name":"Plastic",
			"pbrMetallicRoughness":{
				"baseColorFactor":[
					1,
					0.5386396050453186,
					0,
					1
				],
				"metallicFactor":0
			}
		},
		{
			"alphaMode":"BLEND",
			"doubleSided":true,
			"name":"Transparent plastic",
			"pbrMetallicRoughness":{}
		},
		{
			"alphaMode":"BLEND",
			"doubleSided":true,
			"name":"Transparent Glass",
			"pbrMetallicRoughness":{}
		},
		{
			"doubleSided":true,
			"name":"Black",
			"pbrMetallicRoughness":{
				"metallicFactor":0
			}
		}
	],
	"meshes":[
		{
			"name":"Cube.006",
			"primitives":[
				{
					"attributes":{
						"POSITION":0,
						"NORMAL":1,
						"TEXCOORD_0":2,
						"TEXCOORD_1":3
					},
					"indices":4,
					"material":0
				}
			]
		},
		{
			"name":"Cube.002",
			"primitives":[
				{
					"attributes":{
						"POSITION":5,
						"NORMAL":6,
						"TEXCOORD_0":7,
						"TEXCOORD_1":8
					},
					"indices":9,
					"material":0
				}
			]
		},
		{
			"name":"Plane.001",
			"primitives":[
				{
					"attributes":{
						"POSITION":10,
						"NORMAL":11,
						"TEXCOORD_0":12
					},
					"indices":13,
					"material":1
				}
			]
		},
		{
			"name":"Cube.001",
			"primitives":[
				{
					"attributes":{
						"POSITION":14,
						"NORMAL":15,
						"TEXCOORD_0":16,
						"TEXCOORD_1":17
					},
					"indices":18,
					"material":2
				}
			]
		},
		{
			"name":"Cube.004",
			"primitives":[
				{
					"attributes":{
						"POSITION":19,
						"NORMAL":20,
						"TEXCOORD_0":21,
						"TEXCOORD_1":22
					},
					"indices":23,
					"material":3
				}
			]
		}
	],
	"accessors":[
		{
			"bufferView":0,
			"componentType":5126,
			"count":70,
			"max":[
				1,
				0.029888814315199852,
				0.008636893704533577
			],
			"min":[
				-1,
				-3.9295613765716553,
				-1.997658610343933
			],
			"type":"VEC3"
		},
		{
			"bufferView":1,
			"componentType":5126,
			"count":70,
			"type":"VEC3"
		},
		{
			"bufferView":2,
			"componentType":5126,
			"count":70,
			"type":"VEC2"
		},
		{
			"bufferView":3,
			"componentType":5126,
			"count":70,
			"type":"VEC2"
		},
		{
			"bufferView":4,
			"componentType":5123,
			"count":120,
			"type":"SCALAR"
		},
		{
			"bufferView":5,
			"componentType":5126,
			"count":50,
			"max":[
				1,
				1.1518069505691528,
				0.9999999403953552
			],
			"min":[
				-1,
				-2.807643175125122,
				-1
			],
			"type":"VEC3"
		},
		{
			"bufferView":6,
			"componentType":5126,
			"count":50,
			"type":"VEC3"
		},
		{
			"bufferView":7,
			"componentType":5126,
			"count":50,
			"type":"VEC2"
		},
		{
			"bufferView":8,
			"componentType":5126,
			"count":50,
			"type":"VEC2"
		},
		{
			"bufferView":9,
			"componentType":5123,
			"count":120,
			"type":"SCALAR"
		},
		{
			"bufferView":10,
			"componentType":5126,
			"count":3385,
			"max":[
				0.8294751644134521,
				0,
				0.32348209619522095
			],
			"min":[
				-1.0794751644134521,
				-0.14973051846027374,
				-0.5734820365905762
			],
			"type":"VEC3"
		},
		{
			"bufferView":11,
			"componentType":5126,
			"count":3385,
			"type":"VEC3"
		},
		{
			"bufferView":12,
			"componentType":5126,
			"count":3385,
			"type":"VEC2"
		},
		{
			"bufferView":13,
			"componentType":5123,
			"count":20064,
			"type":"SCALAR"
		},
		{
			"bufferView":14,
			"componentType":5126,
			"count":22,
			"max":[
				0.7926469445228577,
				-0.6245807409286499,
				0.008636893704533577
			],
			"min":[
				-0.7926469445228577,
				-3.2627999782562256,
				-0.003953633829951286
			],
			"type":"VEC3"
		},
		{
			"bufferView":15,
			"componentType":5126,
			"count":22,
			"type":"VEC3"
		},
		{
			"bufferView":16,
			"componentType":5126,
			"count":22,
			"type":"VEC2"
		},
		{
			"bufferView":17,
			"componentType":5126,
			"count":22,
			"type":"VEC2"
		},
		{
			"bufferView":18,
			"componentType":5123,
			"count":36,
			"type":"SCALAR"
		},
		{
			"bufferView":19,
			"componentType":5126,
			"count":14,
			"max":[
				1,
				1.1518069505691528,
				-1
			],
			"min":[
				-1,
				-2.807643175125122,
				-1
			],
			"type":"VEC3"
		},
		{
			"bufferView":20,
			"componentType":5126,
			"count":14,
			"type":"VEC3"
		},
		{
			"bufferView":21,
			"componentType":5126,
			"count":14,
			"type":"VEC2"
		},
		{
			"bufferView":22,
			"componentType":5126,
			"count":14,
			"type":"VEC2"
		},
		{
			"bufferView":23,
			"componentType":5123,
			"count":36,
			"type":"SCALAR"
		}
	],
	"bufferViews":[
		{
			"buffer":0,
			"byteLength":840,
			"byteOffset":0,
			"target":34962
		},
		{
			"buffer":0,
			"byteLength":840,
			"byteOffset":840,
			"target":34962
		},
		{
			"buffer":0,
			"byteLength":560,
			"byteOffset":1680,
			"target":34962
		},
		{
			"buffer":0,
			"byteLength":560,
			"byteOffset":2240,
			"target":34962
		},
		{
			"buffer":0,
			"byteLength":240,
			"byteOffset":2800,
			"target":34963
		},
		{
			"buffer":0,
			"byteLength":600,
			"byteOffset":3040,
			"target":34962
		},
		{
			"buffer":0,
			"byteLength":600,
			"byteOffset":3640,
			"target":34962
		},
		{
			"buffer":0,
			"byteLength":400,
			"byteOffset":4240,
			"target":34962
		},
		{
			"buffer":0,
			"byteLength":400,
			"byteOffset":4640,
			"target":34962
		},
		{
			"buffer":0,
			"byteLength":240,
			"byteOffset":5040,
			"target":34963
		},
		{
			"buffer":0,
			"byteLength":40620,
			"byteOffset":5280,
			"target":34962
		},
		{
			"buffer":0,
			"byteLength":40620,
			"byteOffset":45900,
			"target":34962
		},
		{
			"buffer":0,
			"byteLength":27080,
			"byteOffset":86520,
			"target":34962
		},
		{
			"buffer":0,
			"byteLength":40128,
			"byteOffset":113600,
			"target":34963
		},
		{
			"buffer":0,
			"byteLength":264,
			"byteOffset":153728,
			"target":34962
		},
		{
			"buffer":0,
			"byteLength":264,
			"byteOffset":153992,
			"target":34962
		},
		{
			"buffer":0,
			"byteLength":176,
			"byteOffset":154256,
			"target":34962
		},
		{
			"buffer":0,
			"byteLength":176,
			"byteOffset":154432,
			"target":34962
		},
		{
			"buffer":0,
			"byteLength":72,
			"byteOffset":154608,
			"target":34963
		},
		{
			"buffer":0,
			"byteLength":168,
			"byteOffset":154680,
			"target":34962
		},
		{
			"buffer":0,
			"byteLength":168,
			"byteOffset":154848,
			"target":34962
		},
		{
			"buffer":0,
			"byteLength":112,
			"byteOffset":155016,
			"target":34962
		},
		{
			"buffer":0,
			"byteLength":112,
			"byteOffset":155128,
			"target":34962
		},
		{
			"buffer":0,
			"byteLength":72,
			"byteOffset":155240,
			"target":34963
		}
	],
	"buffers":[
		{
			"byteLength":155312,
			"uri":"caja3.bin"
		}
	]
}
