{
	"asset":{
		"generator":"Khronos glTF Blender I/O v3.5.30",
		"version":"2.0"
	},
	"extensionsUsed":[
		"KHR_materials_specular"
	],
	"scene":0,
	"scenes":[
		{
			"name":"Scene",
			"nodes":[
				0
			]
		}
	],
	"nodes":[
		{
			"mesh":0,
			"name":"Chocolate.001",
			"rotation":[
				0,
				-0.7071067094802856,
				0,
				0.7071068286895752
			],
			"scale":[
				0.6959572434425354,
				0.6959572434425354,
				0.6959572434425354
			],
			"translation":[
				-0.005839496850967407,
				0.5887369513511658,
				0.5000696778297424
			]
		}
	],
	"materials":[
		{
			"doubleSided":true,
			"extensions":{
				"KHR_materials_specular":{
					"specularColorFactor":[
						0.6000000238418578,
						0.6000000238418578,
						0.6000000238418578
					]
				}
			},
			"name":"Material.001",
			"pbrMetallicRoughness":{
				"baseColorTexture":{
					"index":0
				},
				"metallicFactor":0.014492753893136978,
				"roughnessFactor":0.07246376574039459
			}
		}
	],
	"meshes":[
		{
			"name":"Cilindro.001",
			"primitives":[
				{
					"attributes":{
						"POSITION":0,
						"TEXCOORD_0":1,
						"NORMAL":2
					},
					"indices":3,
					"material":0
				}
			]
		}
	],
	"textures":[
		{
			"sampler":0,
			"source":0
		}
	],
	"images":[
		{
			"bufferView":4,
			"mimeType":"image/png",
			"name":"COOrazon2"
		}
	],
	"accessors":[
		{
			"bufferView":0,
			"componentType":5126,
			"count":4474,
			"max":[
				0.5165930390357971,
				0.41222500801086426,
				1.355301022529602
			],
			"min":[
				-2.034505844116211,
				-0.8502508997917175,
				-1.355302095413208
			],
			"type":"VEC3"
		},
		{
			"bufferView":1,
			"componentType":5126,
			"count":4474,
			"type":"VEC2"
		},
		{
			"bufferView":2,
			"componentType":5126,
			"count":4474,
			"type":"VEC3"
		},
		{
			"bufferView":3,
			"componentType":5123,
			"count":26112,
			"type":"SCALAR"
		}
	],
	"bufferViews":[
		{
			"buffer":0,
			"byteLength":53688,
			"byteOffset":0,
			"target":34962
		},
		{
			"buffer":0,
			"byteLength":35792,
			"byteOffset":53688,
			"target":34962
		},
		{
			"buffer":0,
			"byteLength":53688,
			"byteOffset":89480,
			"target":34962
		},
		{
			"buffer":0,
			"byteLength":52224,
			"byteOffset":143168,
			"target":34963
		},
		{
			"buffer":0,
			"byteLength":832150,
			"byteOffset":195392
		}
	],
	"samplers":[
		{
			"magFilter":9729,
			"minFilter":9987
		}
	],
	"buffers":[
		{
			"byteLength":1027544,
			"uri":"data:application/octet-stream;base64,"
		}
	]
}
